<?xml version="1.0" encoding="UTF-8"?> <svg xmlns="http://www.w3.org/2000/svg" xml:space="preserve" viewBox="0 0 512 512"><path d="M264.696 59.011h16.223c6.896 0 13.166 2.82 17.706 7.361 4.539 4.539 7.361 10.809 7.361 17.705v96.139c0 36.281-23.776 59.503-54.193 69.637-11.657 3.882-24.295 5.829-36.919 5.832-12.623.004-25.256-1.934-36.905-5.818-30.346-10.115-54.043-33.312-54.043-69.651v-96.14c0-6.896 2.82-13.165 7.361-17.705h.014c4.542-4.539 10.805-7.361 17.692-7.361h16.223v6.684h-16.223c-5.057 0-9.653 2.068-12.987 5.395l.006.007c-3.331 3.332-5.401 7.929-5.401 12.98v96.139c0 32.971 21.683 54.077 49.448 63.333 10.97 3.655 22.889 5.48 34.815 5.479 11.926-.002 23.849-1.836 34.829-5.494 27.839-9.276 49.598-30.405 49.598-63.318V84.076c0-5.051-2.07-9.647-5.401-12.98-3.332-3.332-7.93-5.402-12.981-5.402h-16.223v-6.683z" style="fill:#ab8361"></path><path d="M308.213 165.528v14.687c0 37.403-24.448 61.323-55.726 71.744-11.881 3.958-24.757 5.941-37.615 5.944-12.856.004-25.728-1.973-37.602-5.93-31.205-10.403-55.574-34.295-55.574-71.758v-14.687h11.14v14.687c0 31.848 21.011 52.257 47.917 61.225 10.744 3.582 22.425 5.37 34.118 5.367 11.693-.002 23.378-1.797 34.132-5.381 26.979-8.988 48.067-29.422 48.067-61.211v-14.687h11.143z" style="fill:#ab8361"></path><circle cx="359.448" cy="316.961" r="30.849" style="fill:#ab8361"></circle><circle cx="359.448" cy="316.961" r="26.917" style="fill:#ab8361"></circle><circle cx="359.448" cy="316.961" r="21.189" style="fill:#ab8361"></circle><circle cx="359.448" cy="316.961" r="16.079" style="fill:#ab8361"></circle><path d="M355.146 327.85h8.618v26.843h-8.618z" style="fill:#ab8361"></path><path d="M365.922 352.676v26.921c0 21.114-8.418 41.174-23.332 56.088-14.916 14.917-34.975 23.333-56.09 23.333-21.116 0-41.18-8.406-56.098-23.322-14.917-14.919-23.324-34.985-23.324-56.099V267.785h12.941v111.813c0 17.679 7.045 34.461 19.533 46.947 12.488 12.487 29.271 19.533 46.947 19.533 17.675 0 34.456-7.056 46.941-19.54 12.486-12.485 19.541-29.265 19.541-46.94v-26.921l12.941-.001zM152.07 57.6h8.676c1.626-2.765 4.63-4.621 8.067-4.621 5.163 0 9.35 4.187 9.35 9.35 0 5.164-4.187 9.35-9.35 9.35-3.438 0-6.441-1.857-8.067-4.622h-8.676V57.6zm119.243 0h-8.676c-1.625-2.765-4.629-4.621-8.066-4.621-5.164 0-9.35 4.187-9.35 9.35 0 5.164 4.186 9.35 9.35 9.35 3.438 0 6.442-1.857 8.066-4.622h8.676V57.6z" style="fill:#ab8361"></path><path d="M220.121 257.731v16.679h-13.149v-16.844c2.553.227 5.116.339 7.68.338 1.824-.002 3.65-.06 5.469-.173z" style="fill:#ab8361"></path><circle cx="167.503" cy="58.675" r="2.828" style="fill:#ab8361"></circle><circle cx="253.166" cy="58.675" r="2.828" style="fill:#ab8361"></circle><circle cx="358.58" cy="316.083" r="15.2" style="fill:#ab8361"></circle></svg> 